<svg version="1.1" id="Layer_1" xmlns="http://www.w3.org/2000/svg" xmlns:xlink="http://www.w3.org/1999/xlink" x="0px" y="0px"
	 width="100%" viewBox="0 0 1200 1200" enable-background="new 0 0 1200 1200" xml:space="preserve">
<path fill="#000000" opacity="1.000000" stroke="none" 
	d="
M556.000000,1201.000000 
	C370.666656,1201.000000 185.833328,1201.000000 1.000000,1201.000000 
	C1.000000,801.000000 1.000000,401.000000 1.000000,1.000000 
	C401.000000,1.000000 801.000000,1.000000 1201.000000,1.000000 
	C1201.000000,401.000000 1201.000000,801.000000 1201.000000,1201.000000 
	C986.166687,1201.000000 771.333313,1201.000000 556.000000,1201.000000 
M826.799133,824.961060 
	C842.283875,826.967896 857.934875,828.139648 873.213867,831.180237 
	C895.288696,835.573242 917.308594,840.570007 938.938538,846.754822 
	C953.346924,850.874573 967.074463,857.416016 981.026917,863.070496 
	C986.862610,865.435486 994.971497,863.335022 997.938354,858.220947 
	C1000.826965,853.241699 999.188538,846.161133 993.125732,842.804382 
	C984.479126,838.017029 975.549255,833.482788 966.268250,830.158325 
	C950.777710,824.609558 934.913574,820.103882 919.320740,815.194946 
	C919.320740,802.235535 919.320740,789.149841 919.320740,776.030457 
	C921.473694,776.030457 923.354614,775.757202 925.130554,776.073608 
	C939.613953,778.653503 954.106628,781.196594 968.539612,784.039795 
	C984.200256,787.124878 999.855591,790.277161 1015.411255,793.844666 
	C1033.432983,797.977661 1051.431274,802.270508 1069.275513,807.101074 
	C1084.430054,811.203552 1099.308105,816.315979 1114.389526,820.703003 
	C1125.330444,823.885620 1135.630249,829.479492 1147.774048,828.201904 
	C1153.651855,827.583374 1155.075562,826.936157 1155.071289,820.644775 
	C1154.978149,680.487427 1155.000000,540.330078 1154.999756,400.172699 
	C1154.999756,399.006134 1155.354370,397.671631 1154.906494,396.713135 
	C1154.269165,395.349426 1153.081299,393.262665 1152.057983,393.221130 
	C1146.097656,392.978912 1139.754761,391.991364 1134.215820,393.591431 
	C1121.473999,397.272217 1109.272583,402.799011 1096.571777,406.653656 
	C1078.301758,412.198547 1059.861694,417.235779 1041.345581,421.900238 
	C1026.202271,425.715027 1010.853271,428.722443 995.573425,431.984497 
	C984.218384,434.408722 972.853210,436.799835 961.446716,438.964233 
	C948.894104,441.346100 936.296814,443.496948 923.704529,445.664062 
	C913.008545,447.504822 902.316711,449.397614 891.577332,450.951111 
	C880.783264,452.512543 869.916382,453.564392 859.110779,455.053040 
	C843.021423,457.269745 826.984192,459.880096 810.875671,461.938782 
	C795.661255,463.883148 780.397034,465.470581 765.129761,466.958923 
	C749.641968,468.468811 734.133179,469.791809 718.615967,470.963226 
	C703.205688,472.126587 687.781799,473.165344 672.348083,473.946045 
	C660.443237,474.548218 648.515137,474.716278 636.595215,474.979370 
	C630.477600,475.114380 630.004700,475.465515 630.002930,481.506805 
	C629.995789,505.338562 630.000000,529.170288 630.000000,553.002075 
	C630.000000,554.599487 630.000000,556.196899 630.000000,558.177612 
	C499.688354,558.177612 369.955444,558.177612 240.286072,558.177612 
	C240.286072,564.982361 240.286072,571.391968 240.286072,577.712708 
	C243.990784,577.712708 247.402130,577.712708 251.190277,577.712708 
	C251.190277,574.351440 251.190277,571.267517 251.190277,568.287720 
	C377.650543,568.287720 503.716522,568.287720 629.710815,568.287720 
	C629.710815,610.312927 629.710815,652.049744 629.710815,693.719238 
	C503.351288,693.719238 377.281128,693.719238 250.821747,693.719238 
	C250.821747,690.359741 250.821747,687.278259 250.821747,684.288452 
	C247.018509,684.288452 243.611542,684.288452 240.292114,684.288452 
	C240.292114,691.320557 240.292114,698.059937 240.292114,705.182739 
	C370.316681,705.182739 500.049530,705.182739 630.000000,705.182739 
	C630.000000,719.217590 630.128723,732.863281 629.925415,746.504089 
	C629.860229,750.878235 632.281799,751.904907 635.704407,751.965088 
	C642.360291,752.082336 649.024048,751.842468 655.676819,752.028687 
	C676.682617,752.616638 697.685791,753.306213 718.687988,754.015015 
	C725.776306,754.254211 732.861145,754.623657 739.942993,755.017578 
	C744.532593,755.272827 749.118774,755.624451 753.697876,756.029785 
	C768.371887,757.328918 783.042053,758.672363 797.713562,760.000244 
	C805.213989,760.679199 812.730164,761.220886 820.210510,762.076355 
	C830.559082,763.259827 840.879150,764.691650 851.213989,765.996948 
	C862.121033,767.374634 873.031067,768.728760 884.000000,770.100647 
	C884.000000,779.852844 884.143982,789.011963 883.955811,798.164307 
	C883.796692,805.906372 881.410095,807.789429 875.494019,806.890015 
	C861.030701,804.691223 846.508972,802.865051 831.992737,801.031189 
	C825.345398,800.191406 818.649231,799.102417 811.986877,799.176514 
	C803.524414,799.270630 795.000366,799.972046 786.646606,801.309509 
	C781.873474,802.073730 777.335632,809.379272 778.026855,813.102295 
	C779.239441,819.632568 783.392151,822.867432 790.343994,823.022644 
	C801.764221,823.277588 813.181396,823.672119 824.599060,824.033691 
	C825.065674,824.048462 825.523926,824.327087 826.799133,824.961060 
M323.000000,659.345276 
	C322.999725,668.100769 322.041565,669.609619 315.209839,671.767883 
	C315.209839,674.755981 315.209839,677.699402 315.209839,680.786133 
	C327.496338,680.786133 339.572418,680.786133 351.822205,680.786133 
	C351.822205,677.475220 351.822205,674.378235 351.822205,671.297852 
	C344.734192,670.638000 342.092316,668.127014 342.046295,661.178955 
	C341.914948,641.349670 341.875153,621.517761 342.061584,601.689331 
	C342.136566,593.710815 344.521149,591.345093 351.810059,590.658447 
	C351.810059,587.582886 351.810059,584.492493 351.810059,581.359985 
	C339.765045,581.359985 327.913391,581.359985 316.531616,581.359985 
	C313.804199,595.563660 311.160522,609.331177 308.516846,623.098755 
	C308.084747,623.079651 307.652649,623.060608 307.220551,623.041504 
	C304.299194,609.085510 301.377808,595.129517 298.484283,581.306641 
	C286.302734,581.306641 274.223724,581.306641 262.265778,581.306641 
	C262.265778,584.719360 262.265778,587.819946 262.265778,590.904785 
	C269.563751,591.114441 271.977020,593.595764 271.988892,600.887024 
	C272.021240,620.717163 272.000336,640.547363 271.999847,660.377563 
	C271.999634,669.144958 270.919250,670.375854 262.230164,671.436523 
	C262.230164,674.513367 262.230164,677.595581 262.230164,680.767944 
	C272.204956,680.767944 281.948181,680.767944 291.821198,680.767944 
	C291.821198,677.428833 291.821198,674.323181 291.821198,671.243042 
	C285.095062,670.312866 283.093506,667.567932 283.027710,658.602417 
	C282.923737,644.438721 282.988556,630.273804 283.023102,616.109436 
	C283.025726,615.044434 283.356628,613.980225 283.534912,612.915588 
	C288.692932,634.583496 292.795563,656.128723 297.125946,677.628052 
	C297.389801,678.938049 299.291412,680.375793 300.733887,680.869873 
	C302.374390,681.431946 304.504761,681.434265 306.144196,680.870911 
	C307.620392,680.363586 309.589630,678.936646 309.854523,677.616882 
	C313.064758,661.621582 315.980896,645.567383 319.017883,629.536926 
	C319.816376,625.322266 320.766815,621.136414 321.647461,616.937317 
	C322.098297,616.999573 322.549164,617.061890 323.000000,617.124207 
	C323.000000,630.876526 323.000000,644.628845 323.000000,659.345276 
M594.455078,680.074829 
	C596.165344,679.643250 598.016296,679.497742 599.564209,678.736206 
	C616.508301,670.399719 623.022461,655.300720 624.842346,637.828064 
	C625.962158,627.076477 625.009583,616.222107 622.010132,605.675598 
	C618.022400,591.654419 608.141357,579.866943 591.418213,580.899475 
	C582.293030,581.462891 573.104431,581.000000 563.944458,581.000000 
	C558.008057,581.000000 552.071655,581.000000 546.000549,581.000000 
	C546.000549,583.566101 545.620605,585.656128 546.127930,587.502441 
	C546.494263,588.835693 548.002991,590.797424 549.066162,590.838928 
	C554.629517,591.056091 555.861328,595.003967 555.900696,599.057617 
	C556.111328,620.706421 555.996033,642.358459 556.003296,664.009338 
	C556.004761,668.308777 553.929565,670.859497 549.609192,670.932983 
	C546.676331,670.982910 545.818298,672.260620 545.977417,674.911072 
	C546.093262,676.839600 546.000061,678.780701 546.000061,680.699524 
	C562.271484,680.699524 578.048157,680.699524 594.455078,680.074829 
M388.775085,678.978821 
	C400.351624,683.325195 411.727936,684.310181 422.646851,677.037903 
	C432.967651,670.164001 437.276184,659.915039 437.880005,648.141357 
	C438.441956,637.184143 437.830414,626.172180 438.039093,615.190125 
	C438.365509,598.011414 424.874146,578.722473 403.185913,579.614868 
	C386.925690,580.283997 372.485138,596.227600 372.081726,610.678711 
	C371.700958,624.319763 371.691071,637.988831 372.093964,651.628662 
	C372.440399,663.356750 377.885468,672.505005 388.775085,678.978821 
M460.516510,634.987976 
	C460.677612,640.194214 460.867645,645.399719 460.993713,650.606750 
	C461.251343,661.251160 465.564728,669.732666 473.875793,676.488708 
	C482.456696,683.464111 501.609985,683.920044 510.354095,678.138611 
	C521.600281,670.702942 526.563171,659.883789 526.937805,646.828369 
	C527.243530,636.171753 526.883423,625.497864 527.026794,614.834473 
	C527.253235,597.995239 513.898804,578.793640 492.265900,579.604858 
	C475.927246,580.217468 461.336273,596.540894 461.026642,611.154541 
	C460.864288,618.816895 460.976746,626.485046 460.516510,634.987976 
z"/>
<path fill="#FFFFFF" opacity="1.000000" stroke="none" 
	d="
M826.392578,824.721924 
	C825.523926,824.327087 825.065674,824.048462 824.599060,824.033691 
	C813.181396,823.672119 801.764221,823.277588 790.343994,823.022644 
	C783.392151,822.867432 779.239441,819.632568 778.026855,813.102295 
	C777.335632,809.379272 781.873474,802.073730 786.646606,801.309509 
	C795.000366,799.972046 803.524414,799.270630 811.986877,799.176514 
	C818.649231,799.102417 825.345398,800.191406 831.992737,801.031189 
	C846.508972,802.865051 861.030701,804.691223 875.494019,806.890015 
	C881.410095,807.789429 883.796692,805.906372 883.955811,798.164307 
	C884.143982,789.011963 884.000000,779.852844 884.000000,770.100647 
	C873.031067,768.728760 862.121033,767.374634 851.213989,765.996948 
	C840.879150,764.691650 830.559082,763.259827 820.210510,762.076355 
	C812.730164,761.220886 805.213989,760.679199 797.713562,760.000244 
	C783.042053,758.672363 768.371887,757.328918 753.697876,756.029785 
	C749.118774,755.624451 744.532593,755.272827 739.942993,755.017578 
	C732.861145,754.623657 725.776306,754.254211 718.687988,754.015015 
	C697.685791,753.306213 676.682617,752.616638 655.676819,752.028687 
	C649.024048,751.842468 642.360291,752.082336 635.704407,751.965088 
	C632.281799,751.904907 629.860229,750.878235 629.925415,746.504089 
	C630.128723,732.863281 630.000000,719.217590 630.000000,705.182739 
	C500.049530,705.182739 370.316681,705.182739 240.292114,705.182739 
	C240.292114,698.059937 240.292114,691.320557 240.292114,684.288452 
	C243.611542,684.288452 247.018509,684.288452 250.821747,684.288452 
	C250.821747,687.278259 250.821747,690.359741 250.821747,693.719238 
	C377.281128,693.719238 503.351288,693.719238 629.710815,693.719238 
	C629.710815,652.049744 629.710815,610.312927 629.710815,568.287720 
	C503.716522,568.287720 377.650543,568.287720 251.190277,568.287720 
	C251.190277,571.267517 251.190277,574.351440 251.190277,577.712708 
	C247.402130,577.712708 243.990784,577.712708 240.286072,577.712708 
	C240.286072,571.391968 240.286072,564.982361 240.286072,558.177612 
	C369.955444,558.177612 499.688354,558.177612 630.000000,558.177612 
	C630.000000,556.196899 630.000000,554.599487 630.000000,553.002075 
	C630.000000,529.170288 629.995789,505.338562 630.002930,481.506805 
	C630.004700,475.465515 630.477600,475.114380 636.595215,474.979370 
	C648.515137,474.716278 660.443237,474.548218 672.348083,473.946045 
	C687.781799,473.165344 703.205688,472.126587 718.615967,470.963226 
	C734.133179,469.791809 749.641968,468.468811 765.129761,466.958923 
	C780.397034,465.470581 795.661255,463.883148 810.875671,461.938782 
	C826.984192,459.880096 843.021423,457.269745 859.110779,455.053040 
	C869.916382,453.564392 880.783264,452.512543 891.577332,450.951111 
	C902.316711,449.397614 913.008545,447.504822 923.704529,445.664062 
	C936.296814,443.496948 948.894104,441.346100 961.446716,438.964233 
	C972.853210,436.799835 984.218384,434.408722 995.573425,431.984497 
	C1010.853271,428.722443 1026.202271,425.715027 1041.345581,421.900238 
	C1059.861694,417.235779 1078.301758,412.198547 1096.571777,406.653656 
	C1109.272583,402.799011 1121.473999,397.272217 1134.215820,393.591431 
	C1139.754761,391.991364 1146.097656,392.978912 1152.057983,393.221130 
	C1153.081299,393.262665 1154.269165,395.349426 1154.906494,396.713135 
	C1155.354370,397.671631 1154.999756,399.006134 1154.999756,400.172699 
	C1155.000000,540.330078 1154.978149,680.487427 1155.071289,820.644775 
	C1155.075562,826.936157 1153.651855,827.583374 1147.774048,828.201904 
	C1135.630249,829.479492 1125.330444,823.885620 1114.389526,820.703003 
	C1099.308105,816.315979 1084.430054,811.203552 1069.275513,807.101074 
	C1051.431274,802.270508 1033.432983,797.977661 1015.411255,793.844666 
	C999.855591,790.277161 984.200256,787.124878 968.539612,784.039795 
	C954.106628,781.196594 939.613953,778.653503 925.130554,776.073608 
	C923.354614,775.757202 921.473694,776.030457 919.320740,776.030457 
	C919.320740,789.149841 919.320740,802.235535 919.320740,815.194946 
	C934.913574,820.103882 950.777710,824.609558 966.268250,830.158325 
	C975.549255,833.482788 984.479126,838.017029 993.125732,842.804382 
	C999.188538,846.161133 1000.826965,853.241699 997.938354,858.220947 
	C994.971497,863.335022 986.862610,865.435486 981.026917,863.070496 
	C967.074463,857.416016 953.346924,850.874573 938.938538,846.754822 
	C917.308594,840.570007 895.288696,835.573242 873.213867,831.180237 
	C857.934875,828.139648 842.283875,826.967896 826.392578,824.721924 
M714.161621,477.964600 
	C702.658997,478.642700 691.162964,479.479156 679.651978,479.956238 
	C667.074280,480.477539 654.482910,480.670746 641.897217,480.994415 
	C640.310608,481.035248 638.722046,481.000000 637.328857,481.000000 
	C637.328857,507.057190 637.328857,532.462952 637.328857,558.262207 
	C746.061157,558.262207 854.464844,558.262207 962.669434,558.262207 
	C962.669434,565.077026 962.669434,571.490234 962.669434,577.667480 
	C958.921265,577.667480 955.508850,577.667480 951.716064,577.667480 
	C951.716064,574.257080 951.716064,571.178589 951.716064,568.339478 
	C846.584778,568.339478 741.849060,568.339478 637.342651,568.339478 
	C637.342651,610.417969 637.342651,652.156494 637.342651,693.662048 
	C742.427856,693.662048 847.170227,693.662048 952.299805,693.662048 
	C952.299805,690.241150 952.299805,687.159241 952.299805,684.349548 
	C956.099731,684.349548 959.505920,684.349548 962.647949,684.349548 
	C962.647949,691.444946 962.647949,698.187805 962.647949,705.308594 
	C853.892456,705.308594 745.488831,705.308594 637.357300,705.308594 
	C637.357300,718.782898 637.357300,731.857727 637.357300,744.514404 
	C646.145264,745.024231 654.548462,745.675049 662.964050,745.962891 
	C676.711548,746.433044 690.468262,746.625549 704.218872,747.014465 
	C713.306519,747.271423 722.392456,747.615295 731.474670,748.020935 
	C736.564941,748.248230 741.653198,748.597717 746.729919,749.036377 
	C761.573486,750.318848 776.410095,751.682373 791.250977,752.996460 
	C799.247864,753.704590 807.266479,754.212036 815.242065,755.105957 
	C825.429749,756.247742 835.572876,757.783508 845.755859,758.972534 
	C855.489197,760.109131 865.286133,760.751282 874.987915,762.095642 
	C887.347900,763.808289 899.635254,766.040771 911.963196,767.989929 
	C927.012695,770.369324 942.146606,772.293579 957.108093,775.131104 
	C975.954163,778.705261 994.760559,782.597473 1013.407654,787.085571 
	C1040.894287,793.701416 1068.282959,800.748047 1095.596680,808.048401 
	C1108.098633,811.389954 1120.322388,815.772888 1132.709595,819.695374 
	C1132.709595,680.242737 1132.709595,540.711975 1132.709595,400.729889 
	C1131.032104,401.570251 1129.812134,402.347687 1128.483765,402.822327 
	C1100.505005,412.819916 1072.089355,421.352997 1043.120483,427.981476 
	C1025.223999,432.076416 1007.311401,436.108337 989.360352,439.955719 
	C978.941589,442.188751 968.441406,444.048828 957.961487,445.988403 
	C947.146484,447.990112 936.316772,449.914001 925.483948,451.817444 
	C915.439819,453.582336 905.408813,455.448364 895.324646,456.952026 
	C884.865540,458.511597 874.337036,459.599609 863.861816,461.059021 
	C852.769287,462.604431 841.725891,464.515564 830.619873,465.947540 
	C820.903503,467.200378 811.121460,467.934021 801.383728,469.033325 
	C787.290771,470.624329 773.230469,472.525818 759.120361,473.936096 
	C749.150391,474.932556 739.116699,475.276337 729.120056,476.027222 
	C724.400085,476.381714 719.700378,477.007599 714.161621,477.964600 
M1148.000000,605.500000 
	C1148.000000,536.731140 1148.000000,467.962280 1148.000000,399.285614 
	C1145.023438,399.285614 1142.618530,399.285614 1140.279297,399.285614 
	C1140.279297,540.316101 1140.279297,681.060852 1140.279297,821.714417 
	C1142.974609,821.714417 1145.376587,821.714417 1148.000000,821.714417 
	C1148.000000,749.786072 1148.000000,678.143005 1148.000000,605.500000 
M949.316772,831.036926 
	C930.655334,826.260193 912.107849,820.960632 893.298523,816.862610 
	C876.565796,813.217163 859.614563,810.337708 842.624817,808.186768 
	C829.919495,806.578186 816.974976,806.951355 804.187195,805.855652 
	C799.289246,805.435974 794.734009,804.961060 790.005676,806.873718 
	C786.916870,808.123047 784.637207,809.593384 785.061035,813.113342 
	C785.496094,816.726562 788.398315,816.921570 791.321106,817.024292 
	C798.735901,817.284607 806.164246,817.447266 813.554932,818.046021 
	C828.053101,819.220703 842.594299,820.184753 856.997437,822.127197 
	C872.850525,824.265137 888.752747,826.622559 904.304199,830.283264 
	C930.839050,836.529480 956.935913,844.402344 981.670715,856.182617 
	C982.525146,856.589539 983.571411,856.616455 984.391479,857.068604 
	C988.095764,859.111267 990.611938,857.718201 992.237610,854.285583 
	C993.994995,850.574890 991.713135,848.269836 988.745544,847.044128 
	C975.883240,841.731689 962.922424,836.657654 949.316772,831.036926 
M890.000000,784.509705 
	C889.851746,792.593018 889.703491,800.676392 889.552673,808.900940 
	C896.567932,810.467590 904.551331,812.250427 912.756226,814.082703 
	C912.756226,800.641602 912.756226,787.424011 912.756226,774.336304 
	C905.142944,773.234985 897.786560,772.170776 890.000000,771.044434 
	C890.000000,775.259521 890.000000,779.387024 890.000000,784.509705 
z"/>
<path fill="#FFFFFF" opacity="1.000000" stroke="none" 
	d="
M323.000000,658.863220 
	C323.000000,644.628845 323.000000,630.876526 323.000000,617.124207 
	C322.549164,617.061890 322.098297,616.999573 321.647461,616.937317 
	C320.766815,621.136414 319.816376,625.322266 319.017883,629.536926 
	C315.980896,645.567383 313.064758,661.621582 309.854523,677.616882 
	C309.589630,678.936646 307.620392,680.363586 306.144196,680.870911 
	C304.504761,681.434265 302.374390,681.431946 300.733887,680.869873 
	C299.291412,680.375793 297.389801,678.938049 297.125946,677.628052 
	C292.795563,656.128723 288.692932,634.583496 283.534912,612.915588 
	C283.356628,613.980225 283.025726,615.044434 283.023102,616.109436 
	C282.988556,630.273804 282.923737,644.438721 283.027710,658.602417 
	C283.093506,667.567932 285.095062,670.312866 291.821198,671.243042 
	C291.821198,674.323181 291.821198,677.428833 291.821198,680.767944 
	C281.948181,680.767944 272.204956,680.767944 262.230164,680.767944 
	C262.230164,677.595581 262.230164,674.513367 262.230164,671.436523 
	C270.919250,670.375854 271.999634,669.144958 271.999847,660.377563 
	C272.000336,640.547363 272.021240,620.717163 271.988892,600.887024 
	C271.977020,593.595764 269.563751,591.114441 262.265778,590.904785 
	C262.265778,587.819946 262.265778,584.719360 262.265778,581.306641 
	C274.223724,581.306641 286.302734,581.306641 298.484283,581.306641 
	C301.377808,595.129517 304.299194,609.085510 307.220551,623.041504 
	C307.652649,623.060608 308.084747,623.079651 308.516846,623.098755 
	C311.160522,609.331177 313.804199,595.563660 316.531616,581.359985 
	C327.913391,581.359985 339.765045,581.359985 351.810059,581.359985 
	C351.810059,584.492493 351.810059,587.582886 351.810059,590.658447 
	C344.521149,591.345093 342.136566,593.710815 342.061584,601.689331 
	C341.875153,621.517761 341.914948,641.349670 342.046295,661.178955 
	C342.092316,668.127014 344.734192,670.638000 351.822205,671.297852 
	C351.822205,674.378235 351.822205,677.475220 351.822205,680.786133 
	C339.572418,680.786133 327.496338,680.786133 315.209839,680.786133 
	C315.209839,677.699402 315.209839,674.755981 315.209839,671.767883 
	C322.041565,669.609619 322.999725,668.100769 323.000000,658.863220 
z"/>
<path fill="#FFFFFF" opacity="1.000000" stroke="none" 
	d="
M594.139893,680.387207 
	C578.048157,680.699524 562.271484,680.699524 546.000061,680.699524 
	C546.000061,678.780701 546.093262,676.839600 545.977417,674.911072 
	C545.818298,672.260620 546.676331,670.982910 549.609192,670.932983 
	C553.929565,670.859497 556.004761,668.308777 556.003296,664.009338 
	C555.996033,642.358459 556.111328,620.706421 555.900696,599.057617 
	C555.861328,595.003967 554.629517,591.056091 549.066162,590.838928 
	C548.002991,590.797424 546.494263,588.835693 546.127930,587.502441 
	C545.620605,585.656128 546.000549,583.566101 546.000549,581.000000 
	C552.071655,581.000000 558.008057,581.000000 563.944458,581.000000 
	C573.104431,581.000000 582.293030,581.462891 591.418213,580.899475 
	C608.141357,579.866943 618.022400,591.654419 622.010132,605.675598 
	C625.009583,616.222107 625.962158,627.076477 624.842346,637.828064 
	C623.022461,655.300720 616.508301,670.399719 599.564209,678.736206 
	C598.016296,679.497742 596.165344,679.643250 594.139893,680.387207 
M575.000000,629.500000 
	C575.000000,639.333252 574.718140,649.179199 575.157166,658.992798 
	C575.305237,662.304993 576.635193,667.774841 578.558044,668.329285 
	C582.366455,669.427551 587.841187,669.084839 591.002808,666.941650 
	C594.594360,664.507080 597.414246,659.778320 598.815369,655.475647 
	C603.854858,640.000244 604.351929,624.092896 601.006348,608.161316 
	C597.835510,593.061462 597.630493,592.999939 584.796936,593.000000 
	C576.327576,593.000061 575.049438,594.273743 575.008667,603.000244 
	C574.968933,611.500000 575.000000,620.000061 575.000000,629.500000 
z"/>
<path fill="#FFFFFF" opacity="1.000000" stroke="none" 
	d="
M388.432007,678.795532 
	C377.885468,672.505005 372.440399,663.356750 372.093964,651.628662 
	C371.691071,637.988831 371.700958,624.319763 372.081726,610.678711 
	C372.485138,596.227600 386.925690,580.283997 403.185913,579.614868 
	C424.874146,578.722473 438.365509,598.011414 438.039093,615.190125 
	C437.830414,626.172180 438.441956,637.184143 437.880005,648.141357 
	C437.276184,659.915039 432.967651,670.164001 422.646851,677.037903 
	C411.727936,684.310181 400.351624,683.325195 388.432007,678.795532 
M394.944214,658.565735 
	C395.270935,667.288757 398.569214,671.191406 405.213074,671.029053 
	C410.786224,670.892822 413.189819,666.882507 413.811523,662.626465 
	C415.085815,653.902771 415.788635,645.033752 415.886597,636.215271 
	C416.015167,624.642212 415.412781,613.057068 414.967560,601.483154 
	C414.727509,595.242126 409.826202,590.845276 403.865570,590.979797 
	C397.520569,591.123047 394.515625,596.247681 394.241669,603.970947 
	C393.605103,621.916687 394.238159,639.907532 394.944214,658.565735 
z"/>
<path fill="#FFFFFF" opacity="1.000000" stroke="none" 
	d="
M460.740814,634.569275 
	C460.976746,626.485046 460.864288,618.816895 461.026642,611.154541 
	C461.336273,596.540894 475.927246,580.217468 492.265900,579.604858 
	C513.898804,578.793640 527.253235,597.995239 527.026794,614.834473 
	C526.883423,625.497864 527.243530,636.171753 526.937805,646.828369 
	C526.563171,659.883789 521.600281,670.702942 510.354095,678.138611 
	C501.609985,683.920044 482.456696,683.464111 473.875793,676.488708 
	C465.564728,669.732666 461.251343,661.251160 460.993713,650.606750 
	C460.867645,645.399719 460.677612,640.194214 460.740814,634.569275 
M485.387482,596.088806 
	C484.591675,599.676636 483.168243,603.254028 483.108856,606.854004 
	C482.853882,622.310913 482.826050,637.777649 483.113068,653.233398 
	C483.192322,657.500366 483.995148,662.031616 485.713654,665.885132 
	C486.725983,668.155151 489.981384,670.085510 492.604034,670.812866 
	C496.040466,671.765869 499.837097,670.633667 500.929413,666.676392 
	C502.627441,660.524780 504.688660,654.211792 504.800018,647.935425 
	C505.075592,632.403259 504.384766,616.851562 503.965454,601.310913 
	C503.850677,597.057129 499.880249,591.694702 496.201202,591.172852 
	C492.116852,590.593506 487.836365,590.487976 485.387482,596.088806 
z"/>
<path fill="#000000" opacity="1.000000" stroke="none" 
	d="
M714.576538,477.737579 
	C719.700378,477.007599 724.400085,476.381714 729.120056,476.027222 
	C739.116699,475.276337 749.150391,474.932556 759.120361,473.936096 
	C773.230469,472.525818 787.290771,470.624329 801.383728,469.033325 
	C811.121460,467.934021 820.903503,467.200378 830.619873,465.947540 
	C841.725891,464.515564 852.769287,462.604431 863.861816,461.059021 
	C874.337036,459.599609 884.865540,458.511597 895.324646,456.952026 
	C905.408813,455.448364 915.439819,453.582336 925.483948,451.817444 
	C936.316772,449.914001 947.146484,447.990112 957.961487,445.988403 
	C968.441406,444.048828 978.941589,442.188751 989.360352,439.955719 
	C1007.311401,436.108337 1025.223999,432.076416 1043.120483,427.981476 
	C1072.089355,421.352997 1100.505005,412.819916 1128.483765,402.822327 
	C1129.812134,402.347687 1131.032104,401.570251 1132.709595,400.729889 
	C1132.709595,540.711975 1132.709595,680.242737 1132.709595,819.695374 
	C1120.322388,815.772888 1108.098633,811.389954 1095.596680,808.048401 
	C1068.282959,800.748047 1040.894287,793.701416 1013.407654,787.085571 
	C994.760559,782.597473 975.954163,778.705261 957.108093,775.131104 
	C942.146606,772.293579 927.012695,770.369324 911.963196,767.989929 
	C899.635254,766.040771 887.347900,763.808289 874.987915,762.095642 
	C865.286133,760.751282 855.489197,760.109131 845.755859,758.972534 
	C835.572876,757.783508 825.429749,756.247742 815.242065,755.105957 
	C807.266479,754.212036 799.247864,753.704590 791.250977,752.996460 
	C776.410095,751.682373 761.573486,750.318848 746.729919,749.036377 
	C741.653198,748.597717 736.564941,748.248230 731.474670,748.020935 
	C722.392456,747.615295 713.306519,747.271423 704.218872,747.014465 
	C690.468262,746.625549 676.711548,746.433044 662.964050,745.962891 
	C654.548462,745.675049 646.145264,745.024231 637.357300,744.514404 
	C637.357300,731.857727 637.357300,718.782898 637.357300,705.308594 
	C745.488831,705.308594 853.892456,705.308594 962.647949,705.308594 
	C962.647949,698.187805 962.647949,691.444946 962.647949,684.349548 
	C959.505920,684.349548 956.099731,684.349548 952.299805,684.349548 
	C952.299805,687.159241 952.299805,690.241150 952.299805,693.662048 
	C847.170227,693.662048 742.427856,693.662048 637.342651,693.662048 
	C637.342651,652.156494 637.342651,610.417969 637.342651,568.339478 
	C741.849060,568.339478 846.584778,568.339478 951.716064,568.339478 
	C951.716064,571.178589 951.716064,574.257080 951.716064,577.667480 
	C955.508850,577.667480 958.921265,577.667480 962.669434,577.667480 
	C962.669434,571.490234 962.669434,565.077026 962.669434,558.262207 
	C854.464844,558.262207 746.061157,558.262207 637.328857,558.262207 
	C637.328857,532.462952 637.328857,507.057190 637.328857,481.000000 
	C638.722046,481.000000 640.310608,481.035248 641.897217,480.994415 
	C654.482910,480.670746 667.074280,480.477539 679.651978,479.956238 
	C691.162964,479.479156 702.658997,478.642700 714.576538,477.737579 
M904.634583,681.000000 
	C916.393433,681.000000 928.152283,681.000000 939.861572,681.000000 
	C939.861572,677.365967 939.861572,674.390869 939.861572,671.415710 
	C939.512817,671.728821 939.164001,672.041870 938.815247,672.354919 
	C936.477905,670.339111 933.398499,668.755493 931.929871,666.233765 
	C925.054871,654.428589 918.571045,642.393127 912.125793,630.344543 
	C911.560791,629.288452 911.861328,627.310547 912.484863,626.150452 
	C917.354614,617.091125 922.516052,608.187927 927.347473,599.108948 
	C929.882629,594.344849 932.330200,589.840881 938.703979,590.875061 
	C938.703979,587.344360 938.703979,584.266052 938.703979,581.288025 
	C927.655334,581.288025 916.905029,581.288025 906.000366,581.288025 
	C906.000366,582.227783 906.012939,582.879761 905.998352,583.531067 
	C905.909546,587.478882 904.988159,591.630554 911.525024,591.376343 
	C914.534607,591.259277 914.724121,594.567017 913.673218,596.624939 
	C911.042358,601.777161 908.019165,606.736023 904.950012,611.645386 
	C904.677979,612.080505 902.261475,611.978455 901.956604,611.464294 
	C899.167297,606.761169 896.771667,601.823669 893.963989,597.132446 
	C891.745972,593.426514 893.913757,592.100464 896.809448,591.141846 
	C897.995789,590.749146 899.374451,590.937683 900.814148,590.853027 
	C900.814148,587.599548 900.814148,584.504211 900.814148,581.204956 
	C887.884949,581.204956 875.141357,581.204956 862.348145,581.204956 
	C862.348145,584.577820 862.348145,587.757019 862.348145,590.936157 
	C862.728516,590.570374 863.108948,590.204529 863.489319,589.838745 
	C865.986389,591.506775 869.495789,592.604187 870.811584,594.938171 
	C877.837952,607.401794 884.385681,620.138977 890.885986,632.890137 
	C891.608521,634.307373 891.600525,636.730286 890.875671,638.146667 
	C886.918823,645.878845 882.586487,653.417725 878.472656,661.071045 
	C875.357788,666.866089 871.625793,671.715637 864.307007,671.160034 
	C864.307007,674.679932 864.307007,677.756531 864.307007,680.696472 
	C875.029602,680.696472 885.442688,680.696472 895.885864,680.696472 
	C895.885864,677.418396 895.885864,674.444458 895.885864,672.018921 
	C893.620056,670.780457 891.637695,669.696899 889.510193,668.533997 
	C892.460632,663.195435 895.121948,658.607788 897.548096,653.898987 
	C898.856750,651.359131 899.795227,650.834717 901.305237,653.701599 
	C903.325623,657.537231 905.731750,661.184937 907.540344,665.112244 
	C909.097839,668.494446 907.835266,670.970154 903.861206,670.930481 
	C900.668152,670.898621 899.757996,672.297485 899.975098,675.172974 
	C900.109863,676.958069 900.000061,678.761658 900.000061,681.000000 
	C901.430115,681.000000 902.549683,681.000000 904.634583,681.000000 
M687.896423,593.368713 
	C696.971313,598.276001 697.436707,606.872437 696.991150,615.774780 
	C701.521973,615.774780 705.591675,615.774780 709.783264,615.774780 
	C709.783264,604.152222 709.783264,592.755676 709.783264,581.193970 
	C687.176270,581.193970 664.786133,581.193970 642.345825,581.193970 
	C642.345825,584.578247 642.345825,587.756653 642.345825,591.111145 
	C647.787354,590.138489 650.427490,592.496399 651.105347,597.440063 
	C651.343750,599.179443 651.955017,600.902100 651.960693,602.633789 
	C652.023254,621.779236 652.002991,640.924988 651.998596,660.070618 
	C651.996643,668.338867 650.192200,670.442139 642.234558,671.442383 
	C642.234558,674.522705 642.234558,677.604858 642.234558,680.780334 
	C655.873108,680.780334 669.276184,680.780334 682.999939,680.780334 
	C682.999939,679.603455 682.865845,678.621094 683.022949,677.687805 
	C683.727356,673.504517 682.604126,670.906860 677.866516,670.312134 
	C673.903076,669.814575 671.236694,667.017334 671.107666,663.144470 
	C670.788208,653.550720 671.002808,643.939270 671.002808,633.948242 
	C676.182434,633.948242 680.930908,633.948242 685.778931,633.948242 
	C685.778931,629.816040 685.778931,626.080139 685.778931,621.953308 
	C680.826538,621.953308 676.078674,621.953308 671.000610,621.953308 
	C671.000610,614.111206 670.526001,606.610962 671.259460,599.230774 
	C671.514221,596.667297 674.340210,593.102478 676.745422,592.324158 
	C679.829956,591.325989 683.674988,592.678040 687.896423,593.368713 
M752.000000,617.501526 
	C752.000061,612.670044 751.885315,607.835327 752.024902,603.007874 
	C752.284485,594.032898 754.084717,591.802856 761.701782,590.442444 
	C761.701782,587.339172 761.701782,584.261353 761.701782,581.285156 
	C748.655334,581.285156 735.908936,581.285156 723.000549,581.285156 
	C723.000549,583.552856 722.622192,585.639893 723.127075,587.485291 
	C723.492859,588.822327 724.854126,590.579041 726.075073,590.868591 
	C731.006592,592.038208 732.977722,594.127502 732.986267,599.544983 
	C733.019836,620.869812 732.976929,642.194885 733.018921,663.519653 
	C733.027710,667.959412 731.261902,670.849854 726.595337,670.934387 
	C723.650513,670.987732 722.819580,672.287476 722.977478,674.927063 
	C723.092773,676.854248 723.000061,678.793945 723.000061,680.747803 
	C745.910522,680.747803 768.311523,680.747803 790.749695,680.747803 
	C790.749695,669.755859 790.749695,659.017822 790.749695,648.250732 
	C787.087952,648.250732 783.682373,648.250732 780.000000,648.250732 
	C780.000000,651.633240 780.617615,654.935303 779.828125,657.857178 
	C779.022644,660.838318 777.503906,664.660583 775.118469,665.975037 
	C769.403259,669.124329 762.889709,669.189758 756.995789,665.928650 
	C752.211548,663.281494 752.123352,658.156128 752.055664,653.486267 
	C751.886719,641.826660 752.000000,630.162903 752.000000,617.501526 
M836.000000,632.500000 
	C836.000000,622.338867 835.974426,612.177734 836.008362,602.016663 
	C836.034180,594.274353 838.407959,591.512878 845.753174,590.535461 
	C845.753174,587.451965 845.753174,584.370361 845.753174,581.242432 
	C832.766174,581.242432 820.027344,581.242432 807.206848,581.242432 
	C807.206848,584.585449 807.206848,587.682617 807.206848,590.763123 
	C814.767639,591.259888 816.986328,593.633240 816.993591,601.187378 
	C817.012695,621.009888 816.944153,640.832581 817.030640,660.654724 
	C817.060608,667.525635 815.485657,671.479187 807.328125,671.232117 
	C807.328125,674.447510 807.328125,677.653564 807.328125,680.682983 
	C820.398865,680.682983 833.139709,680.682983 845.724976,680.682983 
	C845.724976,677.268555 845.724976,674.176086 845.724976,671.091919 
	C838.385315,671.143677 836.422913,668.669556 836.084473,660.481750 
	C835.713257,651.502014 836.000000,642.495056 836.000000,632.500000 
M919.684082,746.997375 
	C911.542908,745.793945 903.401733,744.590576 895.260559,743.387207 
	C894.977783,744.058044 894.694946,744.728943 894.412109,745.399841 
	C895.606018,746.266113 896.692627,747.597717 898.015869,747.902588 
	C900.849548,748.555481 903.825317,748.557861 906.707886,749.037415 
	C920.425842,751.319946 934.137817,753.639526 947.840759,756.010559 
	C961.372131,758.351868 974.916809,760.635132 988.387451,763.289490 
	C990.621887,763.729736 992.401855,764.509827 992.777954,761.816284 
	C992.884644,761.052185 990.674866,759.369873 989.323792,759.089355 
	C976.065796,756.335815 962.796204,753.612732 949.465332,751.244446 
	C939.890747,749.543335 930.217896,748.394836 919.684082,746.997375 
M702.092957,509.364807 
	C690.563110,520.900879 678.995117,532.399353 667.553772,544.022461 
	C666.180298,545.417725 665.493958,547.489563 664.489197,549.247803 
	C665.091553,549.726624 665.693909,550.205444 666.296265,550.684326 
	C680.400635,538.678223 692.245728,524.245422 706.048035,511.911255 
	C707.172668,510.906281 707.591064,509.111084 708.337646,507.683075 
	C708.013428,507.294891 707.689148,506.906677 707.364868,506.518494 
	C705.799194,507.306610 704.233459,508.094727 702.092957,509.364807 
M1028.266846,767.036255 
	C1022.784424,765.819824 1017.331787,764.423401 1011.799561,763.507568 
	C1010.333740,763.264893 1008.623047,764.501160 1007.024841,765.058411 
	C1008.200012,766.038940 1009.232971,767.368835 1010.583618,767.918457 
	C1012.634705,768.753357 1014.894104,769.105835 1017.086609,769.558472 
	C1022.976318,770.774414 1028.877563,771.934814 1034.750000,773.112427 
	C1035.911621,767.205139 1031.310669,768.704895 1028.266846,767.036255 
M675.017944,512.472229 
	C671.392700,516.832214 666.081421,519.824280 664.477356,525.986389 
	C672.514282,522.744690 677.080688,515.516602 683.596985,510.021698 
	C679.067322,505.650452 677.838135,510.663361 675.017944,512.472229 
z"/>
<path fill="#000000" opacity="1.000000" stroke="none" 
	d="
M1148.000000,606.000000 
	C1148.000000,678.143005 1148.000000,749.786072 1148.000000,821.714417 
	C1145.376587,821.714417 1142.974609,821.714417 1140.279297,821.714417 
	C1140.279297,681.060852 1140.279297,540.316101 1140.279297,399.285614 
	C1142.618530,399.285614 1145.023438,399.285614 1148.000000,399.285614 
	C1148.000000,467.962280 1148.000000,536.731140 1148.000000,606.000000 
z"/>
<path fill="#000000" opacity="1.000000" stroke="none" 
	d="
M949.657104,831.266907 
	C962.922424,836.657654 975.883240,841.731689 988.745544,847.044128 
	C991.713135,848.269836 993.994995,850.574890 992.237610,854.285583 
	C990.611938,857.718201 988.095764,859.111267 984.391479,857.068604 
	C983.571411,856.616455 982.525146,856.589539 981.670715,856.182617 
	C956.935913,844.402344 930.839050,836.529480 904.304199,830.283264 
	C888.752747,826.622559 872.850525,824.265137 856.997437,822.127197 
	C842.594299,820.184753 828.053101,819.220703 813.554932,818.046021 
	C806.164246,817.447266 798.735901,817.284607 791.321106,817.024292 
	C788.398315,816.921570 785.496094,816.726562 785.061035,813.113342 
	C784.637207,809.593384 786.916870,808.123047 790.005676,806.873718 
	C794.734009,804.961060 799.289246,805.435974 804.187195,805.855652 
	C816.974976,806.951355 829.919495,806.578186 842.624817,808.186768 
	C859.614563,810.337708 876.565796,813.217163 893.298523,816.862610 
	C912.107849,820.960632 930.655334,826.260193 949.657104,831.266907 
z"/>
<path fill="#000000" opacity="1.000000" stroke="none" 
	d="
M890.000000,784.012085 
	C890.000000,779.387024 890.000000,775.259521 890.000000,771.044434 
	C897.786560,772.170776 905.142944,773.234985 912.756226,774.336304 
	C912.756226,787.424011 912.756226,800.641602 912.756226,814.082703 
	C904.551331,812.250427 896.567932,810.467590 889.552673,808.900940 
	C889.703491,800.676392 889.851746,792.593018 890.000000,784.012085 
z"/>
<path fill="#000000" opacity="1.000000" stroke="none" 
	d="
M575.000000,629.000000 
	C575.000000,620.000061 574.968933,611.500000 575.008667,603.000244 
	C575.049438,594.273743 576.327576,593.000061 584.796936,593.000000 
	C597.630493,592.999939 597.835510,593.061462 601.006348,608.161316 
	C604.351929,624.092896 603.854858,640.000244 598.815369,655.475647 
	C597.414246,659.778320 594.594360,664.507080 591.002808,666.941650 
	C587.841187,669.084839 582.366455,669.427551 578.558044,668.329285 
	C576.635193,667.774841 575.305237,662.304993 575.157166,658.992798 
	C574.718140,649.179199 575.000000,639.333252 575.000000,629.000000 
z"/>
<path fill="#000000" opacity="1.000000" stroke="none" 
	d="
M394.650452,658.222900 
	C394.238159,639.907532 393.605103,621.916687 394.241669,603.970947 
	C394.515625,596.247681 397.520569,591.123047 403.865570,590.979797 
	C409.826202,590.845276 414.727509,595.242126 414.967560,601.483154 
	C415.412781,613.057068 416.015167,624.642212 415.886597,636.215271 
	C415.788635,645.033752 415.085815,653.902771 413.811523,662.626465 
	C413.189819,666.882507 410.786224,670.892822 405.213074,671.029053 
	C398.569214,671.191406 395.270935,667.288757 394.650452,658.222900 
z"/>
<path fill="#000000" opacity="1.000000" stroke="none" 
	d="
M485.667511,595.802612 
	C487.836365,590.487976 492.116852,590.593506 496.201202,591.172852 
	C499.880249,591.694702 503.850677,597.057129 503.965454,601.310913 
	C504.384766,616.851562 505.075592,632.403259 504.800018,647.935425 
	C504.688660,654.211792 502.627441,660.524780 500.929413,666.676392 
	C499.837097,670.633667 496.040466,671.765869 492.604034,670.812866 
	C489.981384,670.085510 486.725983,668.155151 485.713654,665.885132 
	C483.995148,662.031616 483.192322,657.500366 483.113068,653.233398 
	C482.826050,637.777649 482.853882,622.310913 483.108856,606.854004 
	C483.168243,603.254028 484.591675,599.676636 485.667511,595.802612 
z"/>
<path fill="#FFFFFF" opacity="1.000000" stroke="none" 
	d="
M904.151855,681.000000 
	C902.549683,681.000000 901.430115,681.000000 900.000061,681.000000 
	C900.000061,678.761658 900.109863,676.958069 899.975098,675.172974 
	C899.757996,672.297485 900.668152,670.898621 903.861206,670.930481 
	C907.835266,670.970154 909.097839,668.494446 907.540344,665.112244 
	C905.731750,661.184937 903.325623,657.537231 901.305237,653.701599 
	C899.795227,650.834717 898.856750,651.359131 897.548096,653.898987 
	C895.121948,658.607788 892.460632,663.195435 889.510193,668.533997 
	C891.637695,669.696899 893.620056,670.780457 895.885864,672.018921 
	C895.885864,674.444458 895.885864,677.418396 895.885864,680.696472 
	C885.442688,680.696472 875.029602,680.696472 864.307007,680.696472 
	C864.307007,677.756531 864.307007,674.679932 864.307007,671.160034 
	C871.625793,671.715637 875.357788,666.866089 878.472656,661.071045 
	C882.586487,653.417725 886.918823,645.878845 890.875671,638.146667 
	C891.600525,636.730286 891.608521,634.307373 890.885986,632.890137 
	C884.385681,620.138977 877.837952,607.401794 870.811584,594.938171 
	C869.495789,592.604187 865.986389,591.506775 863.489319,589.838745 
	C863.108948,590.204529 862.728516,590.570374 862.348145,590.936157 
	C862.348145,587.757019 862.348145,584.577820 862.348145,581.204956 
	C875.141357,581.204956 887.884949,581.204956 900.814148,581.204956 
	C900.814148,584.504211 900.814148,587.599548 900.814148,590.853027 
	C899.374451,590.937683 897.995789,590.749146 896.809448,591.141846 
	C893.913757,592.100464 891.745972,593.426514 893.963989,597.132446 
	C896.771667,601.823669 899.167297,606.761169 901.956604,611.464294 
	C902.261475,611.978455 904.677979,612.080505 904.950012,611.645386 
	C908.019165,606.736023 911.042358,601.777161 913.673218,596.624939 
	C914.724121,594.567017 914.534607,591.259277 911.525024,591.376343 
	C904.988159,591.630554 905.909546,587.478882 905.998352,583.531067 
	C906.012939,582.879761 906.000366,582.227783 906.000366,581.288025 
	C916.905029,581.288025 927.655334,581.288025 938.703979,581.288025 
	C938.703979,584.266052 938.703979,587.344360 938.703979,590.875061 
	C932.330200,589.840881 929.882629,594.344849 927.347473,599.108948 
	C922.516052,608.187927 917.354614,617.091125 912.484863,626.150452 
	C911.861328,627.310547 911.560791,629.288452 912.125793,630.344543 
	C918.571045,642.393127 925.054871,654.428589 931.929871,666.233765 
	C933.398499,668.755493 936.477905,670.339111 938.815247,672.354919 
	C939.164001,672.041870 939.512817,671.728821 939.861572,671.415710 
	C939.861572,674.390869 939.861572,677.365967 939.861572,681.000000 
	C928.152283,681.000000 916.393433,681.000000 904.151855,681.000000 
z"/>
<path fill="#FFFFFF" opacity="1.000000" stroke="none" 
	d="
M687.544434,593.193115 
	C683.674988,592.678040 679.829956,591.325989 676.745422,592.324158 
	C674.340210,593.102478 671.514221,596.667297 671.259460,599.230774 
	C670.526001,606.610962 671.000610,614.111206 671.000610,621.953308 
	C676.078674,621.953308 680.826538,621.953308 685.778931,621.953308 
	C685.778931,626.080139 685.778931,629.816040 685.778931,633.948242 
	C680.930908,633.948242 676.182434,633.948242 671.002808,633.948242 
	C671.002808,643.939270 670.788208,653.550720 671.107666,663.144470 
	C671.236694,667.017334 673.903076,669.814575 677.866516,670.312134 
	C682.604126,670.906860 683.727356,673.504517 683.022949,677.687805 
	C682.865845,678.621094 682.999939,679.603455 682.999939,680.780334 
	C669.276184,680.780334 655.873108,680.780334 642.234558,680.780334 
	C642.234558,677.604858 642.234558,674.522705 642.234558,671.442383 
	C650.192200,670.442139 651.996643,668.338867 651.998596,660.070618 
	C652.002991,640.924988 652.023254,621.779236 651.960693,602.633789 
	C651.955017,600.902100 651.343750,599.179443 651.105347,597.440063 
	C650.427490,592.496399 647.787354,590.138489 642.345825,591.111145 
	C642.345825,587.756653 642.345825,584.578247 642.345825,581.193970 
	C664.786133,581.193970 687.176270,581.193970 709.783264,581.193970 
	C709.783264,592.755676 709.783264,604.152222 709.783264,615.774780 
	C705.591675,615.774780 701.521973,615.774780 696.991150,615.774780 
	C697.436707,606.872437 696.971313,598.276001 687.544434,593.193115 
z"/>
<path fill="#FFFFFF" opacity="1.000000" stroke="none" 
	d="
M752.000000,618.001221 
	C752.000000,630.162903 751.886719,641.826660 752.055664,653.486267 
	C752.123352,658.156128 752.211548,663.281494 756.995789,665.928650 
	C762.889709,669.189758 769.403259,669.124329 775.118469,665.975037 
	C777.503906,664.660583 779.022644,660.838318 779.828125,657.857178 
	C780.617615,654.935303 780.000000,651.633240 780.000000,648.250732 
	C783.682373,648.250732 787.087952,648.250732 790.749695,648.250732 
	C790.749695,659.017822 790.749695,669.755859 790.749695,680.747803 
	C768.311523,680.747803 745.910522,680.747803 723.000061,680.747803 
	C723.000061,678.793945 723.092773,676.854248 722.977478,674.927063 
	C722.819580,672.287476 723.650513,670.987732 726.595337,670.934387 
	C731.261902,670.849854 733.027710,667.959412 733.018921,663.519653 
	C732.976929,642.194885 733.019836,620.869812 732.986267,599.544983 
	C732.977722,594.127502 731.006592,592.038208 726.075073,590.868591 
	C724.854126,590.579041 723.492859,588.822327 723.127075,587.485291 
	C722.622192,585.639893 723.000549,583.552856 723.000549,581.285156 
	C735.908936,581.285156 748.655334,581.285156 761.701782,581.285156 
	C761.701782,584.261353 761.701782,587.339172 761.701782,590.442444 
	C754.084717,591.802856 752.284485,594.032898 752.024902,603.007874 
	C751.885315,607.835327 752.000061,612.670044 752.000000,618.001221 
z"/>
<path fill="#FFFFFF" opacity="1.000000" stroke="none" 
	d="
M836.000000,633.000000 
	C836.000000,642.495056 835.713257,651.502014 836.084473,660.481750 
	C836.422913,668.669556 838.385315,671.143677 845.724976,671.091919 
	C845.724976,674.176086 845.724976,677.268555 845.724976,680.682983 
	C833.139709,680.682983 820.398865,680.682983 807.328125,680.682983 
	C807.328125,677.653564 807.328125,674.447510 807.328125,671.232117 
	C815.485657,671.479187 817.060608,667.525635 817.030640,660.654724 
	C816.944153,640.832581 817.012695,621.009888 816.993591,601.187378 
	C816.986328,593.633240 814.767639,591.259888 807.206848,590.763123 
	C807.206848,587.682617 807.206848,584.585449 807.206848,581.242432 
	C820.027344,581.242432 832.766174,581.242432 845.753174,581.242432 
	C845.753174,584.370361 845.753174,587.451965 845.753174,590.535461 
	C838.407959,591.512878 836.034180,594.274353 836.008362,602.016663 
	C835.974426,612.177734 836.000000,622.338867 836.000000,633.000000 
z"/>
<path fill="#FFFFFF" opacity="1.000000" stroke="none" 
	d="
M920.136475,746.998657 
	C930.217896,748.394836 939.890747,749.543335 949.465332,751.244446 
	C962.796204,753.612732 976.065796,756.335815 989.323792,759.089355 
	C990.674866,759.369873 992.884644,761.052185 992.777954,761.816284 
	C992.401855,764.509827 990.621887,763.729736 988.387451,763.289490 
	C974.916809,760.635132 961.372131,758.351868 947.840759,756.010559 
	C934.137817,753.639526 920.425842,751.319946 906.707886,749.037415 
	C903.825317,748.557861 900.849548,748.555481 898.015869,747.902588 
	C896.692627,747.597717 895.606018,746.266113 894.412109,745.399841 
	C894.694946,744.728943 894.977783,744.058044 895.260559,743.387207 
	C903.401733,744.590576 911.542908,745.793945 920.136475,746.998657 
z"/>
<path fill="#FFFFFF" opacity="1.000000" stroke="none" 
	d="
M702.380371,509.123840 
	C704.233459,508.094727 705.799194,507.306610 707.364868,506.518494 
	C707.689148,506.906677 708.013428,507.294891 708.337646,507.683075 
	C707.591064,509.111084 707.172668,510.906281 706.048035,511.911255 
	C692.245728,524.245422 680.400635,538.678223 666.296265,550.684326 
	C665.693909,550.205444 665.091553,549.726624 664.489197,549.247803 
	C665.493958,547.489563 666.180298,545.417725 667.553772,544.022461 
	C678.995117,532.399353 690.563110,520.900879 702.380371,509.123840 
z"/>
<path fill="#FFFFFF" opacity="1.000000" stroke="none" 
	d="
M1028.627197,767.260010 
	C1031.310669,768.704895 1035.911621,767.205139 1034.750000,773.112427 
	C1028.877563,771.934814 1022.976318,770.774414 1017.086609,769.558472 
	C1014.894104,769.105835 1012.634705,768.753357 1010.583618,767.918457 
	C1009.232971,767.368835 1008.200012,766.038940 1007.024841,765.058350 
	C1008.623047,764.501160 1010.333740,763.264893 1011.799561,763.507568 
	C1017.331787,764.423401 1022.784424,765.819824 1028.627197,767.260010 
z"/>
<path fill="#FFFFFF" opacity="1.000000" stroke="none" 
	d="
M675.278015,512.223755 
	C677.838135,510.663361 679.067322,505.650452 683.596985,510.021698 
	C677.080688,515.516602 672.514282,522.744690 664.477356,525.986389 
	C666.081421,519.824280 671.392700,516.832214 675.278015,512.223755 
z"/>
</svg>